<?xml version="1.0" encoding="UTF-8"?>
<svg display="none" version="1.1" xmlns="http://www.w3.org/2000/svg" xmlns:xlink="http://www.w3.org/1999/xlink">
    <defs>

        <symbol id="icon-info" xmlns="http://www.w3.org/2000/svg" xmlns:xlink="http://www.w3.org/1999/xlink"
                viewBox="0 0 330 330" style="enable-background:new 0 0 512 512" xml:space="preserve">
            <path d="M165,0.008C74.019,0.008,0,74.024,0,164.999c0,90.977,74.019,164.992,165,164.992s165-74.015,165-164.992     C330,74.024,255.981,0.008,165,0.008z M165,299.992c-74.439,0-135-60.557-135-134.992S90.561,30.008,165,30.008     s135,60.557,135,134.991C300,239.436,239.439,299.992,165,299.992z"
                  fill="#ffffff"/>
            <path d="M165,130.008c-8.284,0-15,6.716-15,15v99.983c0,8.284,6.716,15,15,15s15-6.716,15-15v-99.983     C180,136.725,173.284,130.008,165,130.008z"
                  fill="#ffffff"/>
            <path d="M165,70.011c-3.95,0-7.811,1.6-10.61,4.39c-2.79,2.79-4.39,6.66-4.39,10.61s1.6,7.81,4.39,10.61     c2.79,2.79,6.66,4.39,10.61,4.39s7.81-1.6,10.609-4.39c2.79-2.8,4.391-6.66,4.391-10.61s-1.601-7.82-4.391-10.61     C172.81,71.61,168.95,70.011,165,70.011z"
                  fill="#ffffff"/>
        </symbol>
        <symbol id="icon-error" xmlns="http://www.w3.org/2000/svg" xmlns:xlink="http://www.w3.org/1999/xlink"
                viewBox="0 0 512 512" style="enable-background:new 0 0 512 512;" xml:space="preserve">
		<path fill="#fff" d="M501.609,384.603L320.543,51.265c-13.666-23.006-37.802-36.746-64.562-36.746c-26.76,0-50.896,13.74-64.562,36.746
			c-0.103,0.176-0.19,0.352-0.293,0.528L10.662,384.076c-13.959,23.491-14.223,51.702-0.719,75.457
			c13.535,23.769,37.919,37.948,65.266,37.948h360.544c27.347,0,52.733-14.179,66.267-37.948
			C515.524,435.779,515.261,407.566,501.609,384.603z M225.951,167.148c0-16.586,13.445-30.03,30.03-30.03
			c16.586,0,30.03,13.445,30.03,30.03v120.121c0,16.584-13.445,30.03-30.03,30.03s-30.03-13.447-30.03-30.03V167.148z
			 M255.981,437.421c-24.839,0-45.046-20.206-45.046-45.046c0-24.839,20.206-45.045,45.046-45.045
			c24.839,0,45.045,20.206,45.045,45.045C301.027,417.214,280.821,437.421,255.981,437.421z"/>
        </symbol>
        <symbol id="icon-success"
                viewBox="0 0 512 512" style="enable-background:new 0 0 512 512" xml:space="preserve">
            <ellipse xmlns="http://www.w3.org/2000/svg" cx="256" cy="256" rx="256" ry="255.832" fill="#ffffff"
            />
            <polygon fill="#48bb78" xmlns="http://www.w3.org/2000/svg"
                     points="235.472,392.08 114.432,297.784 148.848,253.616 223.176,311.52 345.848,134.504   391.88,166.392 "
            />
        </symbol>
        <symbol id="icon-close" viewBox="0 0 32 32">
            <path
                    d="M24.398 7.614c-0.123-0.124-0.27-0.222-0.431-0.289s-0.334-0.101-0.509-0.101c-0.175 0-0.348 0.034-0.509 0.101s-0.308 0.165-0.431 0.289l-6.52 6.507-6.52-6.52c-0.123-0.123-0.27-0.221-0.431-0.288s-0.334-0.101-0.509-0.101c-0.175 0-0.347 0.034-0.509 0.101s-0.308 0.165-0.431 0.288c-0.123 0.123-0.221 0.27-0.288 0.431s-0.101 0.334-0.101 0.509c0 0.175 0.034 0.347 0.101 0.509s0.165 0.308 0.288 0.431l6.52 6.52-6.52 6.52c-0.123 0.123-0.221 0.27-0.288 0.431s-0.101 0.334-0.101 0.509c0 0.175 0.034 0.347 0.101 0.509s0.165 0.308 0.288 0.431 0.27 0.221 0.431 0.288c0.161 0.067 0.334 0.101 0.509 0.101s0.347-0.034 0.509-0.101c0.161-0.067 0.308-0.165 0.431-0.288l6.52-6.52 6.52 6.52c0.123 0.123 0.27 0.221 0.431 0.288s0.334 0.101 0.509 0.101c0.175 0 0.347-0.034 0.509-0.101s0.308-0.165 0.431-0.288 0.221-0.27 0.288-0.431c0.067-0.161 0.101-0.334 0.101-0.509s-0.034-0.347-0.101-0.509c-0.067-0.161-0.165-0.308-0.288-0.431l-6.52-6.52 6.52-6.52c0.507-0.507 0.507-1.36 0-1.867z"></path>
        </symbol>
        <symbol id="icon-settings" viewBox="0 0 20 20" fill="none"
                xmlns="http://www.w3.org/2000/svg">
            <path
                    d="M17.4298 10.98C17.4698 10.66 17.4998 10.34 17.4998 10C17.4998 9.66005 17.4698 9.34005 17.4298 9.02005L19.5398 7.37005C19.7298 7.22005 19.7798 6.95005 19.6598 6.73005L17.6598 3.27005C17.5398 3.05005 17.2698 2.97005 17.0498 3.05005L14.5598 4.05005C14.0398 3.65005 13.4798 3.32005 12.8698 3.07005L12.4898 0.420047C12.4733 0.302388 12.4144 0.194807 12.3242 0.117483C12.234 0.0401581 12.1186 -0.00159773 11.9998 4.67889e-05H7.99984C7.74984 4.67889e-05 7.53984 0.180047 7.50984 0.420047L7.12984 3.07005C6.51984 3.32005 5.95984 3.66005 5.43984 4.05005L2.94984 3.05005C2.71984 2.96005 2.45984 3.05005 2.33984 3.27005L0.339839 6.73005C0.209839 6.95005 0.26984 7.22005 0.45984 7.37005L2.56984 9.02005C2.52984 9.34005 2.49984 9.67005 2.49984 10C2.49984 10.33 2.52984 10.66 2.56984 10.98L0.45984 12.63C0.26984 12.78 0.219839 13.05 0.339839 13.27L2.33984 16.73C2.45984 16.95 2.72984 17.03 2.94984 16.95L5.43984 15.95C5.95984 16.35 6.51984 16.68 7.12984 16.93L7.50984 19.58C7.53984 19.82 7.74984 20 7.99984 20H11.9998C12.2498 20 12.4598 19.82 12.4898 19.58L12.8698 16.93C13.4798 16.68 14.0398 16.34 14.5598 15.95L17.0498 16.95C17.2798 17.04 17.5398 16.95 17.6598 16.73L19.6598 13.27C19.7798 13.05 19.7298 12.78 19.5398 12.63L17.4298 10.98ZM9.99984 13.5C8.06984 13.5 6.49984 11.93 6.49984 10C6.49984 8.07005 8.06984 6.50005 9.99984 6.50005C11.9298 6.50005 13.4998 8.07005 13.4998 10C13.4998 11.93 11.9298 13.5 9.99984 13.5Z"
                    fill="#58606e"/>
        </symbol>
        <symbol id="icon-arrow-back" viewBox="0 0 24 24">
            <path
                    d="M19 11H7.83005L12.71 6.12004C13.1 5.73004 13.1 5.09004 12.71 4.70004C12.6175 4.60733 12.5076 4.53379 12.3867 4.4836C12.2657 4.43342 12.136 4.40759 12.005 4.40759C11.8741 4.40759 11.7444 4.43342 11.6234 4.4836C11.5024 4.53379 11.3926 4.60733 11.3 4.70004L4.71005 11.29C4.61734 11.3826 4.5438 11.4924 4.49361 11.6134C4.44343 11.7344 4.4176 11.8641 4.4176 11.995C4.4176 12.126 4.44343 12.2557 4.49361 12.3767C4.5438 12.4976 4.61734 12.6075 4.71005 12.7L11.3 19.29C11.3926 19.3826 11.5025 19.4561 11.6235 19.5062C11.7445 19.5563 11.8741 19.5821 12.005 19.5821C12.136 19.5821 12.2656 19.5563 12.3866 19.5062C12.5076 19.4561 12.6175 19.3826 12.71 19.29C12.8026 19.1975 12.8761 19.0875 12.9262 18.9666C12.9763 18.8456 13.0021 18.716 13.0021 18.585C13.0021 18.4541 12.9763 18.3245 12.9262 18.2035C12.8761 18.0825 12.8026 17.9726 12.71 17.88L7.83005 13H19C19.55 13 20 12.55 20 12C20 11.45 19.55 11 19 11Z"></path>
        </symbol>
        <symbol id="icon-arrow-undo" viewBox="0 0 32 32">
            <path
                    d="M24.292 13.827l-3.322 3.803c-0.334 0.382-0.294 0.962 0.087 1.295 0.174 0.152 0.389 0.227 0.603 0.227 0.256 0 0.51-0.107 0.692-0.314l4.644-5.317c0.145-0.163 0.234-0.377 0.234-0.612 0-0.239-0.091-0.457-0.241-0.621l-4.637-5.308c-0.334-0.382-0.914-0.421-1.295-0.088s-0.421 0.913-0.087 1.295l3.322 3.803h-12.851c-3.679 0-6.671 2.993-6.671 6.671s2.993 6.671 6.671 6.671h13.648c0.507 0 0.918-0.411 0.918-0.918s-0.411-0.918-0.918-0.918h-13.648c-2.666 0-4.835-2.169-4.835-4.835s2.169-4.835 4.835-4.835h12.851z"></path>
        </symbol>
        <symbol id="icon-arrow-down" viewBox="0 0 12 8">
            <path
                    d="M2.11998 1.29007L5.99998 5.17007L9.87998 1.29007C9.97256 1.19749 10.0825 1.12405 10.2034 1.07394C10.3244 1.02384 10.454 0.998047 10.585 0.998047C10.7159 0.998047 10.8456 1.02384 10.9665 1.07394C11.0875 1.12405 11.1974 1.19749 11.29 1.29007C11.3826 1.38265 11.456 1.49256 11.5061 1.61352C11.5562 1.73449 11.582 1.86414 11.582 1.99507C11.582 2.126 11.5562 2.25565 11.5061 2.37661C11.456 2.49757 11.3826 2.60749 11.29 2.70007L6.69998 7.29007C6.60746 7.38277 6.49757 7.45632 6.3766 7.5065C6.25563 7.55668 6.12594 7.58251 5.99498 7.58251C5.86401 7.58251 5.73432 7.55668 5.61335 7.5065C5.49238 7.45632 5.38249 7.38277 5.28998 7.29007L0.699975 2.70007C0.607272 2.60755 0.533724 2.49767 0.483543 2.37669C0.433361 2.25572 0.407532 2.12604 0.407532 1.99507C0.407532 1.8641 0.433361 1.73442 0.483543 1.61344C0.533724 1.49247 0.607272 1.38258 0.699975 1.29007C1.08998 0.910068 1.72998 0.900068 2.11998 1.29007Z"></path>
        </symbol>
    </defs>
</svg>